<svg width="80" height="80" viewBox="0 0 80 80" fill="none" xmlns="http://www.w3.org/2000/svg">
<path d="M78.0917 48.1395C78.0106 48.4151 77.8569 48.5506 77.6308 48.5461C77.5328 48.525 77.4093 48.4693 77.2603 48.3787C76.7952 48.0886 76.5194 47.9232 76.4329 47.8827C76.5084 48.0088 76.6711 48.2231 76.921 48.5257C77.153 48.8098 77.254 49.0219 77.2239 49.1619C77.2073 49.239 77.1585 49.3127 77.0775 49.3832C76.8998 49.5282 76.7095 49.579 76.5064 49.5355C76.3889 49.5029 76.3064 49.4266 76.2589 49.3066C76.2334 49.2206 76.2205 49.0933 76.2201 48.9247C76.2373 48.4011 76.2405 48.0795 76.2295 47.96C76.1544 48.105 76.0768 48.2788 75.9967 48.4813C75.8479 48.8669 75.7358 49.0992 75.6602 49.1782C75.5831 49.2643 75.4773 49.2965 75.3428 49.275C75.2588 49.257 75.1722 49.2164 75.0832 49.1534C74.8747 48.9988 74.7892 48.834 74.8268 48.659C74.8594 48.5415 75.0173 48.4032 75.3005 48.2442C75.7478 48.0032 76.002 47.8599 76.063 47.8144C75.9014 47.8164 75.7108 47.8341 75.4912 47.8676C75.083 47.9266 74.8299 47.9455 74.7319 47.9245C74.7109 47.92 74.6871 47.9113 74.6606 47.8983C74.4736 47.8142 74.4109 47.6287 74.4725 47.3416C74.5537 47.066 74.7073 46.9305 74.9334 46.935C75.0244 46.9545 75.1445 47.0096 75.2935 47.1001C75.7336 47.3702 76.0066 47.5313 76.1126 47.5834C76.0427 47.4658 75.8889 47.2607 75.6515 46.9681C75.414 46.6755 75.3103 46.4592 75.3404 46.3191C75.3569 46.2421 75.4057 46.1684 75.4868 46.0979C75.6644 45.9528 75.8548 45.9021 76.0578 45.9456C76.1754 45.9782 76.2579 46.0544 76.3054 46.1745C76.3308 46.2605 76.3438 46.3878 76.3442 46.5563C76.3269 47.08 76.3238 47.4016 76.3348 47.5211C76.4099 47.3761 76.4875 47.2023 76.5676 46.9997C76.7163 46.6142 76.8285 46.3819 76.9041 46.3028C76.9811 46.2168 77.0869 46.1846 77.2215 46.2061C77.3055 46.2241 77.392 46.2646 77.481 46.3277C77.6896 46.4822 77.775 46.647 77.7374 46.8221C77.7064 46.9326 77.5605 47.0661 77.2998 47.2226C76.834 47.4817 76.5713 47.6304 76.5118 47.6689C76.6663 47.6654 76.8422 47.6482 77.0393 47.6172C77.47 47.5558 77.7343 47.5355 77.8324 47.5566C77.8534 47.5611 77.8771 47.5698 77.9036 47.5828C78.0907 47.6669 78.1534 47.8524 78.0917 48.1395Z" fill="#00022B"/>
<path d="M67.4512 56.4166L69.1944 53.2316L69.4489 53.3706L69.0363 54.1245L74.1834 56.9366L74.596 56.1827L74.8506 56.3218L72.2719 61.0334L70.3941 60.0564L70.5437 59.7832L71.3548 59.957C71.361 59.9604 71.369 59.9607 71.3788 59.9579C72.0692 60.0984 72.5692 59.886 72.8786 59.3206L73.4614 58.2558L71.1141 56.9734L70.1239 58.7826L69.8411 58.6281L70.8313 56.8189L68.3143 55.4437L67.7057 56.5556L67.4512 56.4166Z" fill="#00022B"/>
<path d="M63.8614 61.8153C63.8306 61.8548 63.8013 61.8865 63.7737 61.9104C63.7039 61.965 63.6068 61.9439 63.4825 61.8471L64.6581 60.3391L65.3863 60.8377C65.3656 60.7944 65.3449 60.751 65.3242 60.7077C65.079 60.0904 65.1545 59.5276 65.5508 59.0193C66.1773 58.2273 66.9527 58.1819 67.8771 58.8831L70.005 60.539L70.388 60.0477L70.6084 60.2192L69.3866 61.7865L66.8942 59.8469C66.8151 59.7853 66.7344 59.7316 66.6521 59.6857C66.2294 59.4475 65.8925 59.4894 65.6416 59.8113C65.5755 59.8961 65.5293 59.9962 65.5028 60.1117C65.4239 60.504 65.5895 60.8915 65.9995 61.2741L68.1293 62.9451L68.4529 62.53L68.6733 62.7015L67.5109 64.1926L64.086 61.5273L63.8614 61.8153Z" fill="#00022B"/>
<path d="M61.6389 63.9108C61.6082 63.9408 61.5775 63.9658 61.5469 63.9857C61.4703 64.0406 61.3744 64.0092 61.2591 63.8915L63.4023 61.7964L63.5977 61.9959C63.4543 62.1361 63.3491 62.259 63.2821 62.3646C63.1582 62.5758 63.1989 62.7863 63.4044 62.9961L67.4931 67.1713L68.0922 66.5855L68.2877 66.7851L66.7129 68.3245L62.023 63.5353L61.6389 63.9108Z" fill="#00022B"/>
<path d="M59.1236 65.9618C59.09 65.9886 59.057 66.0103 59.0245 66.027C58.9427 66.0738 58.8505 66.0328 58.7478 65.904L61.0928 64.0376L61.2669 64.256C61.11 64.3809 60.9929 64.4924 60.9155 64.5906C60.7707 64.7882 60.7899 65.0018 60.973 65.2313L64.616 69.8005L65.2716 69.2788L65.4457 69.4971L63.7227 70.8685L59.5439 65.6273L59.1236 65.9618Z" fill="#00022B"/>
<path d="M52.6797 71.412C52.4635 70.9916 52.4299 70.5581 52.5787 70.1115C52.7992 69.4751 53.3139 68.9493 54.1231 68.534C54.8176 68.1776 55.4936 68.0359 56.1512 68.109C56.0956 68.0007 56.0577 67.9115 56.0377 67.8412C56.0172 67.723 56.0929 67.6197 56.265 67.5314L57.3062 69.5568L56.9335 69.7481C56.7345 69.4236 56.5105 69.1602 56.2616 68.9579C55.67 68.4807 55.0365 68.4154 54.3611 68.7621C54.1827 68.8536 54.0334 68.9625 53.913 69.0886C53.5838 69.4508 53.5371 69.8611 53.7729 70.3197C53.8416 70.4534 53.9374 70.5693 54.0603 70.6672C54.3316 70.8661 54.8149 70.9682 55.5102 70.9736C56.2823 70.9718 56.7196 70.9767 56.8223 70.9884C57.6208 71.0535 58.1559 71.3504 58.4277 71.8791C58.611 72.2357 58.6456 72.6084 58.5314 72.997C58.349 73.5978 57.8724 74.0959 57.1014 74.4916C56.5152 74.7924 55.8939 74.9543 55.2374 74.9773C55.2668 75.0347 55.2899 75.0872 55.3064 75.1351C55.3368 75.2725 55.2627 75.3869 55.0843 75.4785L54.1953 73.7493L54.5681 73.558C54.7513 73.8987 54.9863 74.1523 55.2733 74.319C55.7376 74.5798 56.2309 74.5761 56.7534 74.308C56.8872 74.2393 57.0048 74.1548 57.1062 74.0545C57.4071 73.7471 57.461 73.4055 57.2678 73.0297C57.1925 72.8832 57.0886 72.7595 56.9561 72.6584C56.6815 72.4532 56.2046 72.3478 55.5253 72.3423C54.7787 72.331 54.3525 72.3243 54.2468 72.3223C53.4738 72.244 52.9514 71.9406 52.6797 71.412Z" fill="#00022B"/>
<path d="M53.7682 73.543L53.8634 73.8055L53.1665 74.0579L53.5145 75.0172L52.3087 75.6938L51.8837 74.5224L50.5505 75.0052L50.4552 74.7426L51.7885 74.2598L50.6786 71.2C50.6468 71.1125 50.6096 71.0308 50.5668 70.9549C50.3859 70.6243 50.1709 70.5041 49.9218 70.5944C49.8814 70.609 49.8422 70.627 49.8043 70.6483C49.5612 70.7973 49.4712 71.1688 49.5343 71.7629L49.247 71.8212C49.2007 71.5257 49.1942 71.2767 49.2274 71.0743C49.3006 70.667 49.5964 70.3694 50.1149 70.1817C50.1957 70.1524 50.2777 70.1265 50.361 70.104C51.2032 69.9057 51.8014 70.2946 52.1555 71.2707L53.0712 73.7953L53.7682 73.543Z" fill="#00022B"/>
<path d="M45.4336 71.4036C46.0002 71.312 46.425 71.5499 46.7079 72.1173C46.7207 72.0117 46.7447 71.9071 46.78 71.8037C46.958 71.2934 47.3439 70.9711 47.9376 70.8367C48.1331 70.7924 48.3168 70.7766 48.4885 70.7891C49.0729 70.8403 49.4356 71.1768 49.5766 71.7984C49.7771 72.7149 48.9838 73.3938 47.1966 73.835L47.351 74.516C47.397 74.7185 47.4505 74.89 47.5117 75.0303C47.6719 75.4126 47.9161 75.5666 48.2443 75.4923C48.3421 75.4701 48.4255 75.4329 48.4944 75.3806C48.5973 75.2839 48.6555 75.0871 48.669 74.7904C48.6747 74.6863 48.6798 74.6117 48.6843 74.5666C48.7226 74.2496 48.8919 74.057 49.1922 73.989C49.262 73.9732 49.3308 73.9687 49.3984 73.9754C49.6727 73.9867 49.8407 74.1286 49.9025 74.401C49.9294 74.5197 49.9233 74.6386 49.8842 74.7576C49.7332 75.225 49.1827 75.5662 48.2328 75.7812C47.9883 75.8366 47.7558 75.8635 47.5351 75.8621C46.679 75.843 46.1519 75.3969 45.9539 74.5239L45.4574 72.3344C45.3814 71.9991 45.2649 71.8419 45.1081 71.8627C44.9071 71.9156 44.8403 72.1877 44.9077 72.6791L44.6329 72.7303C44.6048 72.509 44.5958 72.3238 44.6061 72.1746C44.6478 71.776 44.9237 71.519 45.4336 71.4036ZM47.4949 71.4105C47.446 71.4216 47.3925 71.4447 47.3344 71.4799C47.0664 71.658 46.9215 72.0066 46.8996 72.5255L47.1301 73.5417C47.4412 73.4566 47.691 73.3597 47.8793 73.251C48.2248 73.0259 48.3452 72.6829 48.2407 72.2219C48.0959 71.6159 47.8473 71.3454 47.4949 71.4105Z" fill="#00022B"/>
<path d="M44.6835 73.9739C44.7431 74.6732 44.5812 75.2619 44.1978 75.7401C43.7688 76.2725 43.176 76.5708 42.4197 76.6351C41.8631 76.6824 41.3898 76.6112 40.9999 76.4216C40.6017 76.2182 40.3892 75.9596 40.3625 75.6456C40.3576 75.5885 40.3599 75.5308 40.3693 75.4725C40.4319 75.1941 40.6451 75.0394 41.009 75.0085C41.1803 74.9939 41.3189 75.0181 41.4249 75.081C41.5612 75.1628 41.6648 75.366 41.7355 75.6906C41.7685 75.8244 41.7945 75.9192 41.8136 75.9751C41.9099 76.2616 42.115 76.3915 42.429 76.3648C42.586 76.3515 42.7188 76.3078 42.8275 76.2339C43.1863 75.9734 43.3146 75.2438 43.2126 74.045C43.1616 73.4456 43.0614 72.9869 42.9122 72.669C42.7104 72.2405 42.3633 72.0472 41.8709 72.0891C41.6854 72.1048 41.5023 72.1492 41.3216 72.222C40.8563 72.4125 40.542 72.7303 40.3786 73.1754L40.0939 73.1241C40.1495 72.9325 40.2384 72.7525 40.3606 72.584C40.7219 72.1005 41.2737 71.8272 42.0158 71.7641C42.4939 71.7235 42.926 71.7766 43.3123 71.9235C44.1378 72.2486 44.5948 72.9321 44.6835 73.9739Z" fill="#00022B"/>
<path d="M37.8085 72.1341C37.7656 72.1318 37.7264 72.1261 37.6911 72.117C37.5989 72.0977 37.5572 72.0058 37.5661 71.8413L40.5588 72.003L40.5437 72.2819C40.0146 72.2533 39.7328 72.4245 39.6983 72.7956L39.3814 78.6523L40.1966 78.6963L40.1815 78.9752L38.004 78.8576L38.2531 74.2559L36.0766 76.107L36.8596 76.1493L36.8445 76.4282L35.0317 76.3303C35.0337 76.2945 35.0392 76.259 35.0483 76.2236C35.0759 76.1103 35.1684 76.0579 35.3257 76.0664C35.3829 76.0695 35.4403 76.0691 35.4979 76.065C35.6354 76.0437 35.8356 75.9219 36.0987 75.6994L36.9336 74.9807L35.3628 72.002L35.2019 71.9933C35.1519 71.9906 35.1092 71.9847 35.0738 71.9756C34.9891 71.9495 34.9511 71.8578 34.9596 71.7005L36.7408 71.786L37.9269 74.12L38.2769 73.8161L38.3663 72.1642L37.8085 72.1341Z" fill="#00022B"/>
<path d="M31.445 77.5489L28.4233 76.5943C27.6653 76.3548 27.0601 75.9646 26.6079 75.4236C25.9247 74.5919 25.7635 73.606 26.1244 72.4657C26.4074 71.5713 26.9391 70.9357 27.7194 70.5589C28.5155 70.1795 29.3882 70.1398 30.3374 70.4397L33.3898 71.404L33.3023 71.6806L32.4828 71.4217L30.713 77.0135L31.5325 77.2724L31.445 77.5489ZM28.48 76.308L29.279 76.5605L31.0488 70.9686L30.2703 70.7227C29.9494 70.6212 29.6591 70.6009 29.3995 70.6616C28.7269 70.8171 28.1658 71.6049 27.7163 73.025C27.4916 73.7351 27.3794 74.3268 27.3799 74.8001C27.3963 75.5788 27.763 76.0815 28.48 76.308Z" fill="#00022B"/>
<path d="M22.9484 72.2035C23.4662 72.4498 24.0229 72.058 24.6187 71.028L24.0244 70.681C23.7771 70.5356 23.5784 70.452 23.4282 70.4301C23.214 70.407 23.0288 70.5445 22.8727 70.8427C22.5236 71.5249 22.5489 71.9785 22.9484 72.2035ZM22.7425 68.2657C22.8337 68.1841 22.936 68.1123 23.0493 68.0503C23.6453 67.6992 24.3147 67.7177 25.0573 68.1058C25.4762 68.3247 25.8058 68.6061 26.0462 68.9498C26.5487 69.673 26.5591 70.4946 26.0775 71.4146C25.7819 71.9792 25.3821 72.3723 24.8781 72.5938C24.2225 72.8733 23.5361 72.8257 22.8189 72.4509C22.4254 72.2453 22.108 71.9946 21.8668 71.6988C21.4441 71.1628 21.3739 70.6251 21.6563 70.0858C21.7127 69.978 21.7833 69.8896 21.8678 69.8207C22.2189 69.5516 22.897 69.6999 23.9023 70.2657L24.7632 70.752C24.9495 70.3807 25.0839 70.0469 25.1662 69.7505C25.359 69.0271 25.2016 68.5327 24.6938 68.2673C24.5351 68.1844 24.3647 68.1317 24.1825 68.1092C23.7286 68.0498 23.3115 68.1671 22.9311 68.4613L22.7425 68.2657Z" fill="#00022B"/>
<path d="M18.5967 69.3034L19.186 69.735L20.1517 66.4211L17.21 68.2879L17.9207 68.8083L17.7618 69.0249L16.3579 67.9966C16.4299 67.8985 16.4844 67.8363 16.5213 67.8101C16.5414 67.807 16.5976 67.8393 16.69 67.907C16.7247 67.9324 16.7615 67.9549 16.8004 67.9745C16.9056 68.0249 17.04 67.9991 17.2037 67.8971L20.8813 65.5175L21.1933 65.746C21.3146 65.8348 21.3923 65.9227 21.4262 66.0097C21.4631 66.1167 21.4245 66.3813 21.3101 66.8035L20.2606 70.5221L20.5986 70.7696L20.4398 70.9861L18.4378 69.5199L18.5967 69.3034Z" fill="#00022B"/>
<path d="M14.1931 65.7279C14.615 66.1161 15.2627 65.9063 16.1362 65.0983L15.6708 64.5913C15.4775 64.3794 15.3124 64.2408 15.1753 64.1755C14.9774 64.0901 14.7599 64.1668 14.5226 64.4056C13.9876 64.9542 13.8778 65.395 14.1931 65.7279ZM15.1595 61.9053C15.2708 61.8543 15.3897 61.8159 15.5162 61.7902C16.1895 61.6308 16.8235 61.8461 17.4184 62.4362C17.754 62.7691 17.9858 63.1352 18.1139 63.5346C18.3804 64.3739 18.1477 65.1618 17.4158 65.8984C16.9665 66.3506 16.4685 66.608 15.9215 66.6707C15.2125 66.7442 14.5708 66.4959 13.9962 65.926C13.681 65.6134 13.4518 65.2801 13.3086 64.9263C13.0632 64.2894 13.1549 63.7551 13.584 63.3233C13.6698 63.2369 13.7633 63.1733 13.8645 63.1324C14.2793 62.9791 14.8835 63.3211 15.6768 64.1585L16.3558 64.8773C16.6435 64.5776 16.8704 64.2984 17.0367 64.0396C17.4346 63.4055 17.4302 62.8867 17.0234 62.4832C16.8963 62.3571 16.749 62.2564 16.5816 62.1811C16.1654 61.9903 15.7322 61.9792 15.282 62.1479L15.1595 61.9053Z" fill="#00022B"/>
<path d="M13.8771 58.9092C13.8506 58.8754 13.829 58.8422 13.8126 58.8096C13.7663 58.7276 13.808 58.6357 13.9376 58.5341L15.7889 60.891L15.5691 61.0634C15.4453 60.9057 15.3345 60.7878 15.2367 60.7097C15.04 60.5637 14.8261 60.5812 14.5951 60.7624L9.99634 64.3681L10.5139 65.027L10.2941 65.1993L8.93385 63.4675L14.2089 59.3316L13.8771 58.9092Z" fill="#00022B"/>
<path d="M10.9756 58.2581C11.5528 57.9117 11.9513 57.6224 12.1711 57.3903C12.4976 57.044 12.5465 56.6805 12.3177 56.3C12.1886 56.0852 12.0189 55.949 11.8088 55.8913C11.4352 55.7982 10.8002 56.0206 9.9037 56.5587C9.34492 56.894 8.95873 57.1759 8.74511 57.4044C8.41241 57.7544 8.36414 58.1258 8.60031 58.5186C8.74054 58.7518 8.92001 58.8905 9.13873 58.9346C9.50367 58.9996 10.116 58.7741 10.9756 58.2581ZM8.33316 58.6163C8.01581 58.0885 7.88888 57.5508 7.95238 57.0032C8.04771 56.2861 8.43923 55.7212 9.12696 55.3085C9.64275 54.9989 10.1894 54.8796 10.7669 54.9506C11.5361 55.0486 12.1384 55.4597 12.5738 56.1839C12.8912 56.7117 13.0046 57.2617 12.9141 57.8339C12.7966 58.5559 12.391 59.1251 11.6971 59.5415C11.2059 59.8363 10.6912 59.9531 10.153 59.8919C9.39366 59.7964 8.78705 59.3712 8.33316 58.6163Z" fill="#00022B"/>
<path d="M12.2168 51.8566L12.0146 51.3474C11.9987 51.3075 11.9862 51.2662 11.977 51.2237C11.956 51.1319 12.022 51.0556 12.1751 50.9949L13.2059 53.5907L12.9463 53.6936C12.9119 53.6071 12.8736 53.5299 12.8312 53.4619C12.6973 53.2608 12.4873 53.2169 12.201 53.3304L7.04816 55.373L7.27414 55.9421L7.0145 56.045L6.31276 54.2779L7.25161 53.848C7.03877 53.8553 6.82603 53.8241 6.61339 53.7543C6.08844 53.5772 5.72025 53.2224 5.5088 52.69C5.36872 52.3372 5.34768 51.9835 5.4457 51.6288C5.6243 50.9725 6.13634 50.4768 6.98184 50.1416C7.63427 49.883 8.24626 49.833 8.81781 49.9916C9.48236 50.1904 9.94547 50.6192 10.2071 51.2782C10.4053 51.8159 10.4094 52.2726 10.2196 52.6483L12.2168 51.8566ZM6.19826 53.0291C6.27227 53.2154 6.41755 53.3582 6.63411 53.4572C7.12968 53.6767 7.79356 53.6216 8.62574 53.2917C9.07179 53.1149 9.42415 52.9059 9.68281 52.6647C10.0508 52.3108 10.1635 51.9541 10.0208 51.5947C9.77094 50.985 8.98895 50.9368 7.67479 51.45C6.47645 51.925 5.98427 52.4514 6.19826 53.0291Z" fill="#00022B"/>
<path d="M4.34872 47.6433C4.49215 48.1984 5.14994 48.3736 6.32208 48.169L6.20663 47.4905C6.1594 47.2076 6.096 47.0015 6.01641 46.8723C5.89659 46.6932 5.67226 46.6396 5.34343 46.7114C4.59633 46.8819 4.26476 47.1925 4.34872 47.6433ZM7.23577 44.9567C7.3569 44.9742 7.47759 45.0065 7.59784 45.0536C8.24962 45.2851 8.66504 45.8101 8.84411 46.6286C8.94513 47.0903 8.94098 47.5237 8.83166 47.9288C8.59968 48.7784 7.97644 49.314 6.96194 49.5356C6.33925 49.6716 5.78127 49.6175 5.28801 49.3734C4.65286 49.0503 4.2488 48.4935 4.07585 47.7029C3.98096 47.2692 3.96948 46.8648 4.04141 46.49C4.18112 45.8217 4.54833 45.4227 5.14303 45.2928C5.26197 45.2668 5.37501 45.2641 5.48215 45.2847C5.91375 45.381 6.23527 45.9962 6.4467 47.1302L6.62643 48.1025C7.0307 48.0069 7.37287 47.8955 7.65295 47.7684C8.3314 47.4516 8.6094 47.0134 8.48696 46.4537C8.4487 46.2788 8.37971 46.1143 8.28001 45.9601C8.03426 45.574 7.67655 45.3296 7.20691 45.2269L7.23577 44.9567Z" fill="#00022B"/>
<path d="M7.79773 41.6666C7.79441 41.6237 7.79494 41.5842 7.79932 41.5479C7.80642 41.454 7.89208 41.4007 8.05631 41.388L8.29081 44.419L8.01234 44.4405C8.00516 44.3477 7.99166 44.2661 7.97186 44.1958C7.90968 43.9492 7.72151 43.838 7.40734 43.8623L3.91579 44.132L3.96385 44.7532L3.68538 44.7747L3.54037 42.9004L4.53063 42.7485C4.32463 42.6854 4.13014 42.5855 3.94718 42.4488C3.57134 42.1402 3.3663 41.7646 3.33205 41.3219C3.32487 41.2291 3.32868 41.139 3.34347 41.0517C3.40922 40.6946 3.6206 40.5023 3.97761 40.4748C4.07758 40.467 4.17563 40.481 4.27176 40.5167C4.55248 40.6171 4.70389 40.8101 4.72599 41.0957C4.73262 41.1814 4.72798 41.2608 4.71209 41.3338C4.66656 41.4882 4.53453 41.6384 4.31599 41.7846C4.15895 41.8901 4.08346 41.9821 4.08954 42.0607C4.09285 42.1035 4.10716 42.1491 4.13244 42.1974C4.32097 42.4989 4.79203 42.6457 5.54562 42.6378L7.85904 42.4591L7.79773 41.6666Z" fill="#00022B"/>
<path d="M1.82436 32.3153C1.90236 32.0389 2.05442 31.9016 2.28055 31.9035C2.37882 31.9234 2.50298 31.9778 2.65303 32.0666C3.12139 32.3514 3.39906 32.5136 3.48603 32.5531C3.40912 32.428 3.24395 32.2155 2.99053 31.9158C2.75532 31.6343 2.65195 31.4234 2.68042 31.2831C2.69608 31.2058 2.74404 31.1315 2.82429 31.0601C3.00026 30.9131 3.19002 30.8601 3.39357 30.9014C3.51147 30.9325 3.59484 31.0079 3.64368 31.1274C3.67014 31.2131 3.68454 31.3402 3.6869 31.5087C3.67565 32.0326 3.67619 32.3542 3.68851 32.4736C3.76194 32.3277 3.83756 32.153 3.91536 31.9496C4.05967 31.5623 4.16915 31.3287 4.24381 31.2489C4.31989 31.162 4.42532 31.1285 4.56011 31.1485C4.64434 31.1655 4.73131 31.2051 4.82104 31.2671C5.03132 31.4193 5.11866 31.5831 5.08307 31.7585C5.05185 31.8764 4.89557 32.0165 4.61422 32.1787C4.16971 32.4249 3.91719 32.571 3.85667 32.6172C4.01821 32.6134 4.20858 32.5935 4.42779 32.5575C4.83529 32.4939 5.08817 32.472 5.18644 32.4919C5.2075 32.4961 5.23135 32.5046 5.258 32.5173C5.446 32.5992 5.51081 32.7841 5.45245 33.0718C5.37445 33.3483 5.22238 33.4856 4.99625 33.4836C4.90501 33.4652 4.78436 33.4115 4.63431 33.3227C4.19118 33.0576 3.91631 32.8996 3.80969 32.8488C3.88101 32.9656 4.03707 33.1689 4.27788 33.4587C4.51869 33.7486 4.62485 33.9637 4.59638 34.1041C4.58072 34.1813 4.53277 34.2556 4.45252 34.3271C4.27655 34.4741 4.08679 34.527 3.88323 34.4858C3.76533 34.4546 3.68196 34.3793 3.63313 34.2598C3.60667 34.1741 3.59227 34.047 3.58991 33.8784C3.60116 33.3546 3.60062 33.033 3.5883 32.9136C3.51487 33.0595 3.43925 33.2342 3.36145 33.4376C3.21714 33.8249 3.10766 34.0584 3.033 34.1383C2.95692 34.2252 2.85148 34.2587 2.7167 34.2387C2.63247 34.2216 2.54549 34.1821 2.45577 34.1201C2.24549 33.9679 2.15815 33.8041 2.19374 33.6286C2.22353 33.5178 2.36786 33.3826 2.62674 33.2231C3.08955 32.9588 3.35051 32.807 3.40961 32.7678C3.25509 32.7731 3.07947 32.7923 2.88274 32.8256C2.45276 32.8919 2.18864 32.9152 2.09037 32.8953C2.06931 32.891 2.04546 32.8825 2.0188 32.8698C1.83081 32.7879 1.766 32.6031 1.82436 32.3153Z" fill="#00022B"/>
<path d="M12.3572 23.9304L10.6494 27.1345L10.3934 26.9983L10.7976 26.2399L5.61959 23.485L5.21539 24.2434L4.95933 24.1072L7.4856 19.3673L9.37405 20.3233L9.22753 20.5983L8.4146 20.4334C8.40828 20.4301 8.40027 20.4299 8.39058 20.4328C7.6986 20.2999 7.20103 20.5178 6.89788 21.0866L6.32694 22.1578L8.68833 23.4142L9.65842 21.5941L9.94292 21.7455L8.97283 23.5656L11.5049 24.9128L12.1011 23.7941L12.3572 23.9304Z" fill="#00022B"/>
<path d="M15.8516 18.5276C15.882 18.4877 15.9109 18.4557 15.9383 18.4316C16.0075 18.3763 16.1047 18.3963 16.2301 18.4917L15.0711 20.0125L14.3375 19.5218C14.3587 19.5649 14.3799 19.6081 14.401 19.6512C14.653 20.2658 14.5836 20.8294 14.1929 21.342C13.5751 22.1408 12.8002 22.1946 11.8682 21.5036L9.72237 19.871L9.34471 20.3666L9.12243 20.1974L10.327 18.6169L12.8405 20.5291C12.9203 20.5898 13.0016 20.6426 13.0844 20.6876C13.5097 20.9212 13.846 20.8756 14.0934 20.551C14.1586 20.4655 14.2037 20.3649 14.2289 20.2491C14.3035 19.8559 14.1337 19.4703 13.7195 19.0922L11.5716 17.4446L11.2526 17.8632L11.0303 17.6941L12.1763 16.1904L15.6302 18.8181L15.8516 18.5276Z" fill="#00022B"/>
<path d="M18.1052 16.342C18.1357 16.3118 18.1662 16.2866 18.1966 16.2664C18.2728 16.211 18.369 16.2418 18.4851 16.3586L16.3572 18.4692L16.1604 18.2711C16.3027 18.1299 16.407 18.0062 16.4733 17.9002C16.5956 17.688 16.5533 17.4778 16.3464 17.2695L12.2274 13.1242L11.6326 13.7143L11.4357 13.5161L12.9992 11.9653L17.7238 16.7203L18.1052 16.342Z" fill="#00022B"/>
<path d="M20.5176 14.3222C20.5509 14.2951 20.5837 14.273 20.616 14.256C20.6973 14.2083 20.7899 14.2483 20.894 14.3759L18.5696 16.2678L18.3931 16.0514C18.5486 15.9248 18.6645 15.812 18.7408 15.7129C18.8834 15.5138 18.8619 15.3004 18.6764 15.0729L14.9836 10.5437L14.3338 11.0727L14.1573 10.8562L15.8652 9.4661L20.101 14.6613L20.5176 14.3222Z" fill="#00022B"/>
<path d="M26.996 8.73989C27.2152 9.15863 27.2521 9.59188 27.1066 10.0396C26.8909 10.6776 26.38 11.2072 25.5739 11.6284C24.8821 11.99 24.2071 12.1367 23.549 12.0685C23.6055 12.1763 23.6439 12.2653 23.6645 12.3354C23.6859 12.4535 23.6109 12.5573 23.4395 12.6469L22.3833 10.6293L22.7546 10.4352C22.956 10.7582 23.1819 11.0199 23.4324 11.2204C24.0275 11.6932 24.6614 11.7538 25.3342 11.4022C25.5119 11.3093 25.6605 11.1994 25.7799 11.0723C26.1064 10.7078 26.1501 10.2971 25.9109 9.84026C25.8412 9.70702 25.7445 9.59188 25.621 9.49484C25.3482 9.29802 24.8641 9.19949 24.1688 9.19923C23.3967 9.20677 22.9593 9.20506 22.8566 9.19411C22.0577 9.13488 21.5204 8.84197 21.2447 8.31537C21.0587 7.96007 21.0214 7.58767 21.1327 7.19818C21.3106 6.59614 21.7836 6.09445 22.5516 5.6931C23.1355 5.38794 23.7556 5.22143 24.412 5.19357C24.3821 5.13647 24.3587 5.08405 24.3418 5.03632C24.3104 4.89919 24.3836 4.78419 24.5613 4.69132L25.4631 6.41388L25.0918 6.60792C24.9061 6.26863 24.6691 6.01672 24.3809 5.8522C23.9147 5.59483 23.4214 5.60214 22.901 5.87413C22.7677 5.94378 22.6507 6.02915 22.55 6.13024C22.2514 6.43985 22.2 6.78183 22.396 7.15616C22.4724 7.30208 22.5772 7.42508 22.7104 7.52515C22.9865 7.72831 23.4642 7.83017 24.1435 7.83071C24.8902 7.83644 25.3164 7.83995 25.4222 7.84124C26.1957 7.91374 26.7203 8.21328 26.996 8.73989Z" fill="#00022B"/>
<path d="M25.7043 6.67796L25.6061 6.41649L26.3001 6.1563L25.9413 5.20094L27.1395 4.51085L27.5776 5.6774L28.9053 5.17964L29.0035 5.4411L27.6758 5.93886L28.8201 8.98595C28.8528 9.0731 28.891 9.15439 28.9346 9.22982C29.1192 9.55833 29.3355 9.67607 29.5837 9.58306C29.6239 9.56798 29.6629 9.54954 29.7006 9.52775C29.942 9.37607 30.0277 9.00357 29.9579 8.41025L30.2446 8.34866C30.2942 8.64365 30.3035 8.89254 30.2726 9.09534C30.204 9.50346 29.9115 9.80431 29.3952 9.99788C29.3147 10.028 29.233 10.0549 29.15 10.0783C28.3101 10.2861 27.7076 9.90398 27.3425 8.93186L26.3983 6.41777L25.7043 6.67796Z" fill="#00022B"/>
<path d="M34.2112 8.6718C33.6453 8.76769 33.2187 8.533 32.9314 7.96775C32.9195 8.07352 32.8963 8.17827 32.8618 8.28197C32.6877 8.79355 32.3043 9.11879 31.7116 9.25771C31.5164 9.30347 31.3328 9.32074 31.161 9.30953C30.5762 9.26271 30.211 8.92906 30.0653 8.30856C29.8578 7.39362 30.6459 6.7087 32.4297 6.25382L32.2701 5.57407C32.2226 5.37188 32.1677 5.20086 32.1055 5.06098C31.9424 4.67993 31.6971 4.52781 31.3693 4.60463C31.2717 4.62751 31.1887 4.66537 31.1202 4.7182C31.018 4.81571 30.9613 5.01288 30.9501 5.30973C30.9451 5.41388 30.9406 5.4885 30.9365 5.5336C30.9006 5.85093 30.7328 6.04473 30.433 6.11501C30.3633 6.13135 30.2946 6.13642 30.2269 6.13022C29.9525 6.12097 29.7834 5.98039 29.7196 5.70849C29.6918 5.58997 29.697 5.47107 29.7352 5.35178C29.8826 4.88324 30.4305 4.53783 31.3787 4.31557C31.6228 4.25836 31.8551 4.22965 32.0757 4.22942C32.932 4.24202 33.4625 4.68406 33.6671 5.55554L34.1803 7.74122C34.2589 8.07586 34.3765 8.23218 34.5332 8.21017C34.7337 8.1558 34.7985 7.88319 34.7273 7.39233L35.0017 7.33904C35.0316 7.56007 35.0419 7.74521 35.0328 7.89445C34.9941 8.29338 34.7202 8.55249 34.2112 8.6718ZM32.1499 8.68055C32.1987 8.66911 32.252 8.64557 32.3098 8.60995C32.5765 8.42976 32.7188 8.08012 32.7366 7.56104L32.4984 6.54664C32.188 6.63413 31.939 6.73294 31.7515 6.84308C31.4077 7.07077 31.2899 7.41469 31.3979 7.87483C31.5473 8.47975 31.798 8.74832 32.1499 8.68055Z" fill="#00022B"/>
<path d="M34.9425 6.07816C34.8776 5.37934 35.035 4.78937 35.4146 4.30825C35.8395 3.77259 36.4299 3.46971 37.1858 3.39961C37.742 3.34803 38.2158 3.41558 38.6071 3.60225C39.0069 3.80251 39.2214 4.05952 39.2505 4.37328C39.2558 4.43032 39.254 4.48803 39.245 4.5464C39.1846 4.8253 38.9726 4.98162 38.6089 5.01534C38.4378 5.03121 38.299 5.00812 38.1925 4.94607C38.0556 4.86528 37.9505 4.66285 37.8772 4.33881C37.8432 4.20531 37.8165 4.11069 37.7969 4.05497C37.6984 3.76922 37.4923 3.6409 37.1786 3.66999C37.0217 3.68454 36.8892 3.72919 36.781 3.80395C36.4243 4.06718 36.3016 4.79778 36.4129 5.99575C36.4685 6.59473 36.5722 7.05261 36.7239 7.36938C36.929 7.79628 37.2775 7.98691 37.7695 7.94129C37.9549 7.92409 38.1377 7.87838 38.3178 7.80414C38.7817 7.61009 39.0935 7.28988 39.2535 6.84352L39.5385 6.89261C39.4844 7.08462 39.3969 7.26534 39.276 7.43478C38.9184 7.92105 38.3688 8.19857 37.6272 8.26735C37.1494 8.31165 36.7169 8.26186 36.3295 8.11798C35.5016 7.79919 35.0392 7.11925 34.9425 6.07816Z" fill="#00022B"/>
<path d="M41.7877 7.84656C41.8307 7.84855 41.8698 7.85394 41.9053 7.86275C41.9976 7.88137 42.04 7.97294 42.0323 8.13748L39.0385 7.99886L39.0514 7.71986C39.5808 7.74438 39.8613 7.57096 39.8928 7.19963L40.1646 1.34069L39.349 1.30293L39.362 1.02394L41.5403 1.1248L41.3268 5.72825L43.4889 3.86043L42.7056 3.82416L42.7185 3.54516L44.532 3.62912C44.5303 3.66489 44.5251 3.7005 44.5163 3.73593C44.4895 3.8494 44.3974 3.90249 44.24 3.8952C44.1828 3.89255 44.1254 3.89348 44.0679 3.89799C43.9306 3.92031 43.7313 4.04371 43.47 4.26819L42.6406 4.9933L44.2343 7.95984L44.3953 7.96729C44.4454 7.96961 44.4881 7.97517 44.5236 7.98398C44.6084 8.00942 44.6472 8.10083 44.6399 8.25821L42.8581 8.18647L41.654 5.86168L41.3064 6.1682L41.2297 7.82072L41.7877 7.84656Z" fill="#00022B"/>
<path d="M47.9901 2.31584L51.0225 3.23624C51.7831 3.46711 52.3926 3.85044 52.851 4.38623C53.5436 5.21015 53.716 6.19423 53.368 7.33846C53.0951 8.23604 52.5707 8.87766 51.7947 9.26331C51.003 9.65166 50.1308 9.70127 49.1783 9.41215L46.1151 8.48239L46.1995 8.2049L47.0218 8.4545L48.7281 2.84293L47.9058 2.59333L47.9901 2.31584ZM50.9689 3.52309L50.1672 3.27973L48.4609 8.8913L49.2421 9.12842C49.5642 9.22617 49.8547 9.24324 50.1136 9.17962C50.7844 9.01652 51.3365 8.2224 51.7698 6.79724C51.9865 6.08466 52.0919 5.49174 52.0861 5.01848C52.0609 4.23995 51.6885 3.74149 50.9689 3.52309Z" fill="#00022B"/>
<path d="M56.5547 7.53806C56.0343 7.2975 55.4819 7.6955 54.8976 8.73204L55.4958 9.0724C55.7446 9.21501 55.9442 9.29644 56.0947 9.3167C56.3092 9.3374 56.4928 9.1978 56.6456 8.89788C56.987 8.21185 56.9568 7.75858 56.5547 7.53806ZM56.8044 11.4733C56.7141 11.5559 56.6126 11.6288 56.5 11.6921C55.9079 12.0498 55.2384 12.0387 54.4916 11.6589C54.0703 11.4447 53.7375 11.167 53.4933 10.8259C52.9828 10.1083 52.9633 9.28692 53.4346 8.36166C53.724 7.79374 54.1193 7.39625 54.6208 7.1692C55.2733 6.88237 55.9602 6.92237 56.6815 7.28919C57.0773 7.49046 57.3974 7.73763 57.6419 8.0307C58.0705 8.56199 58.1466 9.09883 57.8703 9.64123C57.8151 9.74971 57.7455 9.83887 57.6617 9.90873C57.3137 10.1817 56.634 10.0409 55.6225 9.48632L54.7562 9.00962C54.574 9.38297 54.4434 9.71826 54.3643 10.0155C54.1796 10.741 54.3425 11.2336 54.8532 11.4933C55.0128 11.5745 55.1838 11.6253 55.3663 11.6458C55.8208 11.7002 56.2366 11.5782 56.6136 11.2798L56.8044 11.4733Z" fill="#00022B"/>
<path d="M60.9983 10.402L60.4042 9.97685L59.4749 13.3011L62.3959 11.4023L61.6796 10.8896L61.8361 10.6714L63.2513 11.6841C63.1803 11.7831 63.1265 11.8459 63.0898 11.8724C63.0698 11.8757 63.0133 11.8441 62.9201 11.7774C62.8851 11.7524 62.8481 11.7303 62.809 11.7111C62.7033 11.6619 62.5692 11.6892 62.4066 11.793L58.7553 14.2127L58.4408 13.9877C58.3185 13.9001 58.2399 13.8131 58.2051 13.7265C58.1669 13.6199 58.2027 13.3549 58.3124 12.9315L59.321 9.20162L58.9804 8.9578L59.1368 8.73954L61.1547 10.1837L60.9983 10.402Z" fill="#00022B"/>
<path d="M65.4624 13.9271C65.0363 13.5435 64.3909 13.7604 63.5263 14.5779L63.9972 15.0798C64.1928 15.2895 64.3594 15.4263 64.4972 15.4901C64.696 15.5733 64.9127 15.4942 65.1473 15.2529C65.6763 14.6985 65.7814 14.2565 65.4624 13.9271ZM64.5377 17.76C64.427 17.8122 64.3085 17.8519 64.1823 17.879C63.5108 18.0457 62.8745 17.8373 62.2732 17.2537C61.934 16.9246 61.6982 16.561 61.5657 16.163C61.2901 15.3267 61.5142 14.5362 62.2381 13.7917C62.6824 13.3347 63.1776 13.0718 63.7238 13.0032C64.432 12.922 65.0764 13.1632 65.6571 13.7268C65.9758 14.036 66.2086 14.3668 66.3555 14.719C66.608 15.3531 66.522 15.8885 66.0977 16.3249C66.0128 16.4122 65.92 16.4768 65.8193 16.5188C65.4061 16.6767 64.7983 16.3413 63.9959 15.5126L63.3091 14.8012C63.0247 15.104 62.8008 15.3857 62.6374 15.6462C62.2464 16.2847 62.2565 16.8034 62.6676 17.2024C62.7961 17.3271 62.9445 17.4262 63.1128 17.4997C63.5309 17.686 63.9642 17.6924 64.4126 17.5188L64.5377 17.76Z" fill="#00022B"/>
<path d="M65.8521 20.7218C65.879 20.7553 65.9008 20.7882 65.9177 20.8206C65.9648 20.9021 65.9241 20.9944 65.7956 21.0975L63.9187 18.7609L64.1366 18.5862C64.2622 18.7425 64.3743 18.8592 64.4728 18.9362C64.6711 19.0801 64.8848 19.0602 65.1139 18.8765L69.6729 15.2208L69.1482 14.5675L69.3661 14.3928L70.7452 16.1097L65.5157 20.303L65.8521 20.7218Z" fill="#00022B"/>
<path d="M68.878 21.5001C68.3034 21.8508 67.907 22.143 67.689 22.3767C67.365 22.7254 67.3188 23.0892 67.5504 23.468C67.6811 23.6819 67.8517 23.8169 68.0623 23.873C68.4365 23.9634 69.0699 23.7363 69.9624 23.1916C70.5187 22.8522 70.9028 22.5674 71.1148 22.3374C71.4449 21.985 71.4904 21.6132 71.2514 21.2222C71.1094 20.99 70.9289 20.8526 70.7099 20.8101C70.3445 20.7479 69.7339 20.9779 68.878 21.5001ZM71.5178 21.1225C71.839 21.648 71.9699 22.1848 71.9104 22.7328C71.8204 23.4505 71.433 24.0183 70.7483 24.4361C70.2348 24.7495 69.6891 24.8728 69.1111 24.806C68.3412 24.7137 67.7359 24.307 67.2951 23.586C66.9739 23.0606 66.8565 22.5114 66.9428 21.9386C67.0549 21.2158 67.4563 20.6436 68.1471 20.2221C68.6362 19.9236 69.15 19.8031 69.6886 19.8603C70.4486 19.9502 71.0584 20.371 71.5178 21.1225Z" fill="#00022B"/>
<path d="M67.6937 27.9176L67.8997 28.4252C67.9159 28.4651 67.9287 28.5062 67.9382 28.5487C67.96 28.6404 67.8945 28.7171 67.7418 28.7789L66.6916 26.191L66.9505 26.0861C66.9855 26.1724 67.0244 26.2493 67.0673 26.3169C67.2027 26.5171 67.413 26.5594 67.6984 26.4437L72.8359 24.3626L72.6056 23.7952L72.8645 23.6904L73.5795 25.4522L72.6439 25.8891C72.8566 25.8802 73.0696 25.9098 73.2828 25.978C73.809 26.1512 74.1799 26.5032 74.3953 27.0341C74.538 27.3858 74.5617 27.7393 74.4663 28.0948C74.2927 28.7524 73.7843 29.2519 72.9414 29.5934C72.2909 29.8569 71.6793 29.9115 71.1066 29.7571C70.4405 29.5633 69.9742 29.1379 69.7076 28.481C69.5055 27.9447 69.4979 27.4881 69.685 27.111L67.6937 27.9176ZM73.7033 26.7001C73.6279 26.5143 73.4816 26.3727 73.2643 26.2753C72.7671 26.0594 72.1036 26.1196 71.2739 26.4557C70.8292 26.6358 70.4784 26.8475 70.2216 27.0906C69.8562 27.4472 69.7462 27.8047 69.8916 28.1631C70.146 28.7709 70.9284 28.8132 72.2386 28.2902C73.4334 27.8062 73.9216 27.2762 73.7033 26.7001Z" fill="#00022B"/>
<path d="M75.5944 32.0579C75.4467 31.5039 74.7876 31.3337 73.6171 31.5473L73.7377 32.2249C73.7871 32.5074 73.8521 32.713 73.9326 32.8416C74.0538 33.0198 74.2786 33.0717 74.6068 32.9974C75.3526 32.8212 75.6818 32.5081 75.5944 32.0579ZM72.7279 34.7664C72.6067 34.7498 72.4857 34.7185 72.3651 34.6724C71.7116 34.4458 71.2922 33.924 71.1069 33.1068C71.0023 32.6459 71.0032 32.2125 71.1094 31.8066C71.3349 30.9552 71.954 30.4149 72.9668 30.1856C73.5885 30.0449 74.1468 30.0947 74.6419 30.3351C75.2795 30.6533 75.6878 31.207 75.8668 31.9962C75.965 32.4293 75.9796 32.8335 75.9105 33.2089C75.7759 33.8782 75.4117 34.28 74.818 34.4144C74.6993 34.4413 74.5863 34.4449 74.479 34.4251C74.0467 34.3321 73.7205 33.7194 73.5004 32.587L73.3133 31.6161C72.9097 31.7148 72.5684 31.8288 72.2893 31.958C71.6133 32.28 71.3386 32.7203 71.4654 33.279C71.5049 33.4536 71.5752 33.6176 71.6761 33.771C71.9248 34.1553 72.2843 34.3969 72.7547 34.496L72.7279 34.7664Z" fill="#00022B"/>
<path d="M72.1971 38.0776C72.2007 38.1204 72.2005 38.16 72.1964 38.1963C72.19 38.2903 72.1048 38.3442 71.9407 38.3582L71.6828 35.3291L71.9611 35.3054C71.969 35.3982 71.9831 35.4796 72.0035 35.5498C72.0676 35.7959 72.2566 35.9056 72.5705 35.8789L76.0599 35.5824L76.0071 34.9616L76.2854 34.938L76.4448 36.8111L75.4558 36.9706C75.6622 37.0321 75.8575 37.1305 76.0415 37.2658C76.4197 37.5715 76.6276 37.9455 76.6653 38.3879C76.6732 38.4807 76.6701 38.5708 76.656 38.6582C76.593 39.0158 76.3831 39.2097 76.0263 39.24C75.9264 39.2485 75.8282 39.2353 75.7318 39.2003C75.4503 39.1021 75.2975 38.9102 75.2732 38.6248C75.2659 38.5392 75.2699 38.4598 75.2852 38.3866C75.3296 38.2319 75.4604 38.0806 75.6778 37.9328C75.8341 37.8261 75.9088 37.7335 75.9021 37.655C75.8985 37.6122 75.8838 37.5667 75.8582 37.5186C75.6673 37.2185 75.1952 37.0754 74.4417 37.0891L72.1297 37.2856L72.1971 38.0776Z" fill="#00022B"/>
<path d="M20.0614 30H39.3329L40.4245 34.9114H39.3329C38.5545 33.6315 37.7408 32.6938 36.8917 32.0985C36.0426 31.5032 35.239 31.146 34.4809 31.0269C33.7329 30.9079 32.7523 30.8384 31.5394 30.8186V47.7406C31.5394 48.3955 31.6455 48.8965 31.8578 49.2438C32.07 49.5811 32.4188 49.8143 32.904 49.9433C33.3892 50.0723 34.0664 50.1517 34.9357 50.1814V51H24.3069V50.1814C25.1863 50.1616 25.8585 50.0971 26.3235 49.988C26.7986 49.8689 27.1523 49.6308 27.3848 49.2736C27.6274 48.9065 27.7487 48.3359 27.7487 47.562V30.8186C26.657 30.8285 25.7069 30.9376 24.8982 31.146C24.0895 31.3444 23.4123 31.6173 22.8664 31.9646C22.3206 32.3118 21.8657 32.6839 21.5018 33.0808C21.148 33.4678 20.6224 34.078 19.9249 34.9114H19L20.0614 30ZM38.7112 33.1999L38.0289 30.8186H35.1783C35.9466 31.0567 36.5884 31.3643 37.104 31.7413C37.6195 32.1184 38.1552 32.6045 38.7112 33.1999ZM29.2195 47.2197V32.5897C29.2195 32.0142 29.1487 31.5826 29.0072 31.2948C28.8758 31.0071 28.6231 30.8483 28.2491 30.8186V47.7406C28.2491 48.3558 28.1733 48.8469 28.0217 49.214C27.87 49.5811 27.587 49.9036 27.1726 50.1814H27.5061C28.244 50.1814 28.7141 49.9532 28.9162 49.4968C29.1184 49.0404 29.2195 48.2814 29.2195 47.2197ZM22.8816 30.8186H20.4253L19.8339 33.3487C20.3495 32.6839 20.7993 32.1928 21.1834 31.8753C21.5675 31.5478 22.1336 31.1956 22.8816 30.8186Z" fill="#00022B"/>
<path d="M59.787 43.7222H61L59.787 51H42.1227V50.3898L56.0267 30.8186H51.1596C50.1588 30.8186 49.2087 31.0021 48.309 31.3692C47.4094 31.7264 46.6462 32.163 46.0195 32.679C45.4029 33.185 44.9531 33.6513 44.67 34.078C44.1141 34.9313 43.7401 35.5216 43.548 35.849H42.4866L43.548 30H60.8181V30.5804L46.8383 50.1814H51.5235C52.5141 50.1814 53.348 50.107 54.0253 49.9582C54.7126 49.7994 55.4859 49.3629 56.3451 48.6485C56.8 48.2814 57.2448 47.8299 57.6794 47.2941C58.1242 46.7484 58.5336 46.1531 58.9076 45.5082C59.2917 44.8533 59.5848 44.258 59.787 43.7222ZM54.7834 50.1814H57.7401L58.9227 46.3714C58.3162 47.2941 57.7148 48.0482 57.1184 48.6336C56.5321 49.219 55.7538 49.7349 54.7834 50.1814ZM56.6484 30.8186L42.8657 50.1814C43.3913 50.2013 43.7653 50.1417 43.9877 50.0028C44.2202 49.854 44.6094 49.3926 45.1552 48.6187L56.5574 32.6194C57.0123 31.9745 57.2397 31.5578 57.2397 31.3692C57.2397 31.0716 57.0426 30.888 56.6484 30.8186ZM46.5199 30.8186H43.9574L43.457 33.3487C43.8917 32.7335 44.3415 32.2424 44.8065 31.8753C45.2816 31.5082 45.8527 31.1559 46.5199 30.8186Z" fill="#00022B"/>
</svg>
